<svg id="Layer_1" data-name="Layer 1" xmlns="http://www.w3.org/2000/svg" xmlns:xlink="http://www.w3.org/1999/xlink" viewBox="0 0 356.16 86.3"><defs><style>.cls-1{fill:#ed1c24;}.cls-2{fill:url(#linear-gradient);}.cls-3{fill:url(#linear-gradient-2);}.cls-4{fill:url(#linear-gradient-3);}</style><linearGradient id="linear-gradient" x1="93.26" y1="38.99" x2="146.7" y2="38.99" gradientUnits="userSpaceOnUse"><stop offset="0.2" stop-color="#f4eb1d"/><stop offset="0.83" stop-color="#36489e"/></linearGradient><linearGradient id="linear-gradient-2" x1="213.28" y1="39.75" x2="228.17" y2="39.75" xlink:href="#linear-gradient"/><linearGradient id="linear-gradient-3" x1="277.99" y1="42.94" x2="325.75" y2="42.94" xlink:href="#linear-gradient"/></defs><path class="cls-1" d="M77.28,45.89H64.6a2.86,2.86,0,0,0-1.75.45,3.22,3.22,0,0,0-1,1.6H60.69V37.74H61.9a3.07,3.07,0,0,0,1,1.62,2.91,2.91,0,0,0,1.75.44H88.93v1a4.3,4.3,0,0,0-1.87.84,2,2,0,0,0-.53,1.51v9a2,2,0,0,0,.52,1.5,4,4,0,0,0,1.88.84v.8Q74.32,62.42,60.6,62.41q-12.45,0-20.3-5Q30.42,51,30.42,39.73A19.49,19.49,0,0,1,39.22,23q8.34-5.91,22.19-5.9a47.54,47.54,0,0,1,8.29.69,65.23,65.23,0,0,1,8.86,2.32A13.29,13.29,0,0,0,82.2,21a3.43,3.43,0,0,0,1.85-.74l1,.48-6,10.49L78,30.72a3,3,0,0,0-.34-1.51,4.68,4.68,0,0,0-1.35-1.14,22.09,22.09,0,0,0-6.73-2.5,36.35,36.35,0,0,0-8.38-1q-8,0-13.34,3.84a13.57,13.57,0,0,0-6,11.51,13.22,13.22,0,0,0,5.83,11.18Q53,55,61.74,55a42.78,42.78,0,0,0,8.39-.83,30.84,30.84,0,0,0,7.15-2.28Z"/><path class="cls-2" d="M128.67,48H109.3l-2.18,3.91a5,5,0,0,0-.79,2.21c0,1,.8,1.68,2.4,2V57H93.26v-.9a4.33,4.33,0,0,0,2.12-.74A7.82,7.82,0,0,0,97,53.17L112.4,26.61a5.44,5.44,0,0,0,.87-2.63c0-.87-.71-1.56-2.11-2.05V21h16.36v.9c-1.38.47-2.07,1.2-2.07,2.18a5.26,5.26,0,0,0,.94,2.6l16,25.76a12.14,12.14,0,0,0,2.07,2.72,4.85,4.85,0,0,0,2.29.87V57H129.49v-.9c1.63-.23,2.45-.88,2.45-2a5,5,0,0,0-.94-2.46Zm-3-5-6.9-11.56-6.57,11.56Z"/><path class="cls-1" d="M177.14,53,161.78,29.38V49.71a2,2,0,0,0,.53,1.52,4,4,0,0,0,1.88.88V53h-14v-.9a3.84,3.84,0,0,0,1.86-.83,2.09,2.09,0,0,0,.54-1.54V20.36a2.1,2.1,0,0,0-.52-1.53A4.07,4.07,0,0,0,150.2,18v-.89H168V18q-1.77.48-1.77,1.83A6.13,6.13,0,0,0,167.5,23L178,39.27l10.58-16c1.2-1.68,1.8-2.88,1.8-3.59,0-.87-.61-1.43-1.84-1.67v-.89h17.34V18a4.07,4.07,0,0,0-1.88.85,2.09,2.09,0,0,0-.52,1.53V49.71a2.13,2.13,0,0,0,.52,1.54,3.87,3.87,0,0,0,1.88.86V53H191v-.9a3.75,3.75,0,0,0,1.86-.83,2.1,2.1,0,0,0,.55-1.54V29.38Z"/><path class="cls-3" d="M225.77,25.06V54.41a2.06,2.06,0,0,0,.52,1.52,4.11,4.11,0,0,0,1.88.88v.9H213.28v-.9a3.75,3.75,0,0,0,1.86-.83,2.06,2.06,0,0,0,.55-1.54V25.06a2,2,0,0,0-.53-1.51,4.33,4.33,0,0,0-1.88-.87v-.89h14.89v.89a4.12,4.12,0,0,0-1.88.85A2.09,2.09,0,0,0,225.77,25.06Z"/><path class="cls-1" d="M248.05,43.47v12a2.07,2.07,0,0,0,.53,1.52,4.11,4.11,0,0,0,1.88.88v.9h-14.9v-.9a3.84,3.84,0,0,0,1.87-.83,2.11,2.11,0,0,0,.54-1.54V26.08a2,2,0,0,0-.53-1.5,4.22,4.22,0,0,0-1.88-.87v-.9h37.76a3.13,3.13,0,0,0,1.83-.45,3.1,3.1,0,0,0,1-1.6h1V31.38h-1a3.19,3.19,0,0,0-1-1.6,3.13,3.13,0,0,0-1.83-.46H248.05v7.89h15.87a3,3,0,0,0,1.81-.44,3.43,3.43,0,0,0,1-1.61h1V45.52h-1a3.06,3.06,0,0,0-1-1.59,3,3,0,0,0-1.82-.46Z"/><path class="cls-4" d="M306.91,45.14V57.63a2.06,2.06,0,0,0,.52,1.52,4.15,4.15,0,0,0,1.88.89v.86H294.42V60a4.07,4.07,0,0,0,1.88-.85,2.15,2.15,0,0,0,.53-1.56V45.14L284.34,30.49A21.84,21.84,0,0,0,281,27.11a7.18,7.18,0,0,0-3-1.23V25h19v.9c-1.63.36-2.44,1-2.44,1.95q0,.71,1.77,2.82l6.11,7.23,6-7.23q1.77-2.14,1.77-2.85,0-1.35-2.4-1.92l0-.9h18.05v.9a7.17,7.17,0,0,0-3,1.23,21.84,21.84,0,0,0-3.37,3.38Z"/></svg>